<svg width="32" height="32" viewBox="0 0 32 32" fill="none" xmlns="http://www.w3.org/2000/svg">
<path opacity="0.3" fill-rule="evenodd" clip-rule="evenodd" d="M16 0C7.16344 0 0 7.16344 0 16C0 24.8366 7.16344 32 16 32C24.8366 32 32 24.8366 32 16C32 7.16344 24.8366 0 16 0Z" fill="#2B3F6C"/>
<path d="M13.6318 13.6325L20.2095 11.7907L18.3677 18.3685L11.79 20.2102L13.6318 13.6325Z" fill="#2B3F6C"/>
<path fill-rule="evenodd" clip-rule="evenodd" d="M19.4427 18.6694C19.3376 19.0449 19.0442 19.3383 18.6687 19.4434L12.091 21.2852C11.7026 21.3939 11.2858 21.2847 11.0007 20.9996C10.7155 20.7144 10.6063 20.2976 10.7151 19.9092L12.5568 13.3315C12.662 12.9561 12.9554 12.6627 13.3308 12.5576L19.9085 10.7158C20.2969 10.6071 20.7137 10.7162 20.9988 11.0014C21.284 11.2866 21.3932 11.7034 21.2845 12.0917L19.4427 18.6694ZM18.5995 13.4007L14.5374 14.5381L13.4 18.6002L17.4621 17.4628L18.5995 13.4007Z" fill="#2B3F6C"/>
</svg>
