<svg width="34" height="34" viewBox="0 0 34 34" fill="none" xmlns="http://www.w3.org/2000/svg">
<path fill-rule="evenodd" clip-rule="evenodd" d="M17 1C16.1356 1 15.2711 1.27937 14.55 1.8381L2.55002 11.1362C1.57226 11.8938 1 13.0612 1 14.2981V28.9998C1 31.2089 2.79086 32.9998 5 32.9998H10.9474C11.4997 32.9998 11.9474 32.552 11.9474 31.9998V25.0818C11.9474 23.9772 12.8428 23.0818 13.9474 23.0818H17V1Z" fill="#C0C6D3"/>
<path d="M14.55 1.8381L15.0094 2.43096L14.55 1.8381ZM17 1H17.75V0.25L17 0.25V1ZM2.55002 11.1362L2.09065 10.5434L2.55002 11.1362ZM17 23.0818V23.8318H17.75V23.0818H17ZM15.0094 2.43096C15.5954 1.97693 16.2972 1.75 17 1.75V0.25C15.974 0.25 14.9469 0.581801 14.0907 1.24524L15.0094 2.43096ZM3.00939 11.7291L15.0094 2.43096L14.0907 1.24524L2.09065 10.5434L3.00939 11.7291ZM1.75 14.2981C1.75 13.2931 2.21496 12.3446 3.00939 11.7291L2.09065 10.5434C0.929555 11.443 0.25 12.8293 0.25 14.2981H1.75ZM1.75 28.9998V14.2981H0.25V28.9998H1.75ZM5 32.2498C3.20508 32.2498 1.75 30.7947 1.75 28.9998H0.25C0.25 31.6231 2.37665 33.7498 5 33.7498V32.2498ZM10.9474 32.2498H5V33.7498H10.9474V32.2498ZM11.1974 31.9998C11.1974 32.1378 11.0854 32.2498 10.9474 32.2498V33.7498C11.9139 33.7498 12.6974 32.9663 12.6974 31.9998H11.1974ZM11.1974 25.0818V31.9998H12.6974V25.0818H11.1974ZM13.9474 22.3318C12.4286 22.3318 11.1974 23.563 11.1974 25.0818H12.6974C12.6974 24.3914 13.257 23.8318 13.9474 23.8318V22.3318ZM17 22.3318H13.9474V23.8318H17V22.3318ZM17.75 23.0818V1H16.25V23.0818H17.75Z" fill="#C0C6D3"/>
<path fill-rule="evenodd" clip-rule="evenodd" d="M17 1C17.8644 1 18.7289 1.27937 19.45 1.8381L31.45 11.1362C32.4277 11.8938 33 13.0612 33 14.2981V28.9998C33 31.2089 31.2091 32.9998 29 32.9998H23.0526C22.5003 32.9998 22.0526 32.552 22.0526 31.9998V25.0818C22.0526 23.9772 21.1572 23.0818 20.0526 23.0818H17V1Z" fill="#C0C6D3"/>
<path d="M19.45 1.8381L18.9906 2.43096L19.45 1.8381ZM17 1H16.25V0.25L17 0.25V1ZM31.45 11.1362L31.9093 10.5434L31.45 11.1362ZM17 23.0818V23.8318H16.25V23.0818H17ZM18.9906 2.43096C18.4046 1.97693 17.7028 1.75 17 1.75V0.25C18.026 0.25 19.0531 0.581801 19.9093 1.24524L18.9906 2.43096ZM30.9906 11.7291L18.9906 2.43096L19.9093 1.24524L31.9093 10.5434L30.9906 11.7291ZM32.25 14.2981C32.25 13.2931 31.785 12.3446 30.9906 11.7291L31.9093 10.5434C33.0704 11.443 33.75 12.8293 33.75 14.2981H32.25ZM32.25 28.9998V14.2981H33.75V28.9998H32.25ZM29 32.2498C30.7949 32.2498 32.25 30.7947 32.25 28.9998H33.75C33.75 31.6231 31.6233 33.7498 29 33.7498V32.2498ZM23.0526 32.2498H29V33.7498H23.0526V32.2498ZM22.8026 31.9998C22.8026 32.1378 22.9146 32.2498 23.0526 32.2498V33.7498C22.0861 33.7498 21.3026 32.9663 21.3026 31.9998H22.8026ZM22.8026 25.0818V31.9998H21.3026V25.0818H22.8026ZM20.0526 22.3318C21.5714 22.3318 22.8026 23.563 22.8026 25.0818H21.3026C21.3026 24.3914 20.743 23.8318 20.0526 23.8318V22.3318ZM17 22.3318H20.0526V23.8318H17V22.3318ZM16.25 23.0818V1H17.75V23.0818H16.25Z" fill="#C0C6D3"/>
</svg>
