<svg width="18" height="21" viewBox="0 0 18 21" fill="none" xmlns="http://www.w3.org/2000/svg">
<path opacity="0.3" d="M13 4.3706C13 2.65827 10.9884 1.73774 9.69256 2.85712L6.36317 5.73321C5.99989 6.04704 5.53583 6.21972 5.05576 6.21973L3.49998 6.21974C2.11928 6.21975 1 7.33903 1 8.71974V12.0127C1 13.3934 2.11929 14.5127 3.5 14.5127H5.0558C5.53587 14.5127 5.99993 14.6854 6.36322 14.9992L9.69256 17.8753C10.9884 18.9947 13 18.0741 13 16.3618V10.3662V4.3706Z" fill="#2B3F6C" stroke="#2B3F6C" stroke-width="1.5"/>
<path d="M16 13.3667C16.6279 12.531 17 11.4923 17 10.3667C17 9.24109 16.6279 8.20236 16 7.3667" stroke="#2B3F6C" stroke-width="1.5" stroke-linecap="round"/>
</svg>
