<svg width="32" height="32" viewBox="0 0 32 32" fill="none" xmlns="http://www.w3.org/2000/svg">
<rect width="32" height="32" rx="16" transform="matrix(-1 8.74228e-08 8.74228e-08 1 32 0)" fill="#2B3F6C" fill-opacity="0.3"/>
<path d="M8.49063 15.2621L14.784 12.1245C14.9405 12.0451 15.1182 12.0025 15.3031 12.0007C15.488 11.9989 15.6658 12.038 15.8222 12.1133C15.9929 12.1968 16.1351 12.3159 16.2346 12.4598C16.3342 12.6038 16.384 12.7667 16.384 12.932V15.1271L22.4071 12.1233C22.5636 12.0445 22.7413 12.0019 22.9191 12.0001C23.104 11.9977 23.2818 12.0368 23.4382 12.1127C23.616 12.1956 23.7583 12.3153 23.8507 12.4592C23.9503 12.6026 24 12.7656 24 12.9308V19.0686C24 19.2339 23.9503 19.3968 23.8507 19.5402C23.7583 19.6842 23.616 19.8039 23.4382 19.8868C23.2818 19.9626 23.104 20.0017 22.9191 19.9999C22.7413 19.9976 22.5636 19.9549 22.4071 19.8761L16.384 16.8712V19.0674C16.384 19.2327 16.3342 19.3962 16.2346 19.5402C16.1351 19.6842 15.9929 19.8039 15.8222 19.8868C15.6658 19.9626 15.488 20.0017 15.3031 19.9999C15.1182 19.9976 14.9405 19.9549 14.784 19.8761L8.49063 16.7379C8.34129 16.6603 8.2204 16.5513 8.13507 16.4227C8.04263 16.2942 8 16.1496 8 16.0021C8 15.8552 8.04263 15.7106 8.13507 15.5815C8.2204 15.4529 8.34129 15.3445 8.49063 15.2663V15.2621Z" fill="#2B3F6C"/>
</svg>
