<svg width="32" height="32" viewBox="0 0 32 32" fill="none" xmlns="http://www.w3.org/2000/svg">
<path fill-rule="evenodd" clip-rule="evenodd" d="M14.2326 2.79541e-08C11.9552 0.000167491 9.72813 0.543251 7.7019 1.5837C5.69241 2.62414 3.95082 4.13197 2.64465 5.98143C1.32174 7.83072 0.467718 9.96788 0.149549 12.2147C-0.185366 14.4616 0.0488782 16.753 0.785691 18.8975C1.5225 21.042 2.7783 22.9777 4.41939 24.5428C6.06047 26.1081 8.05358 27.2576 10.2305 27.8953C12.4075 28.533 14.7184 28.6405 16.9456 28.2089C19.1728 27.7774 21.2658 26.8191 23.0409 25.4141L29.1529 31.5299C29.4711 31.835 29.9068 32.0038 30.3422 31.9999C30.7776 31.9961 31.1961 31.8199 31.5143 31.5094C31.8157 31.199 32 30.779 32 30.3399C32 29.9008 31.8325 29.4778 31.5311 29.1619L25.4186 23.0462C27.0597 20.9472 28.098 18.4249 28.3827 15.7678C28.6673 13.1108 28.1984 10.4262 27.0429 8.02163C25.8707 5.61703 24.0456 3.58939 21.7849 2.17065C19.5243 0.752074 16.9119 -0.000167435 14.2326 2.79541e-08ZM3.34784 14.2343C3.34784 11.3474 4.48639 8.57878 6.52937 6.53741C8.57235 4.49604 11.3523 3.34925 14.2326 3.34925C17.1128 3.34925 19.8928 4.49604 21.9358 6.53741C23.9788 8.57878 25.1173 11.3474 25.1173 14.2343C25.1173 17.1212 23.9788 19.8899 21.9358 21.9312C19.8928 23.9726 17.1128 25.1194 14.2326 25.1194C11.3523 25.1194 8.57235 23.9726 6.52937 21.9312C4.48639 19.8899 3.34784 17.1212 3.34784 14.2343Z" fill="black" fill-opacity="0.5"/>
</svg>
