<svg width="33" height="33" viewBox="0 0 33 33" fill="none" xmlns="http://www.w3.org/2000/svg">
<path opacity="0.3" fill-rule="evenodd" clip-rule="evenodd" d="M16.25 0.25C7.41344 0.25 0.25 7.41344 0.25 16.25C0.25 18.8802 0.885494 21.3652 2.01229 23.5567C2.08279 23.6938 2.08432 23.8247 2.05116 23.9186L0.669536 27.8286C-0.143335 30.129 2.07259 32.3449 4.37301 31.532L8.12756 30.2053C8.22504 30.1709 8.36178 30.1742 8.50229 30.2522C10.7989 31.5254 13.4415 32.25 16.25 32.25C25.0866 32.25 32.25 25.0866 32.25 16.25C32.25 7.41344 25.0866 0.25 16.25 0.25Z" fill="#2B3F6C"/>
<circle cx="8.88225" cy="16.3241" r="1.86047" fill="#2B3F6C"/>
<circle cx="16.3241" cy="16.3241" r="1.86047" fill="#2B3F6C"/>
<circle cx="23.766" cy="16.3241" r="1.86047" fill="#2B3F6C"/>
</svg>
