<svg width="32" height="32" viewBox="0 0 32 32" fill="none" xmlns="http://www.w3.org/2000/svg">
<path opacity="0.3" fill-rule="evenodd" clip-rule="evenodd" d="M1.23077 0C0.551034 0 0 0.575458 0 1.28532C0 1.99518 0.551034 2.57064 1.23077 2.57064H3.28205V28.6465C3.28205 31.1367 6.01995 32.5422 7.90795 31.0212L10.0919 29.2617C10.2292 29.1511 10.4184 29.1426 10.5643 29.2406L13.5597 31.2515C15.0462 32.2495 16.9538 32.2495 18.4403 31.2515L21.4357 29.2406C21.5816 29.1426 21.7708 29.1511 21.9081 29.2617L24.0921 31.0212C25.98 32.5422 28.7179 31.1367 28.7179 28.6465V2.57064H30.7692C31.449 2.57064 32 1.99518 32 1.28532C32 0.575458 31.449 0 30.7692 0H1.23077ZM9.84615 11.5679C9.84615 10.858 10.3972 10.2826 11.0769 10.2826H16C16.6797 10.2826 17.2308 10.858 17.2308 11.5679C17.2308 12.2777 16.6797 12.8532 16 12.8532H11.0769C10.3972 12.8532 9.84615 12.2777 9.84615 11.5679ZM11.0769 17.1376C10.3972 17.1376 9.84615 17.7131 9.84615 18.4229C9.84615 19.1328 10.3972 19.7083 11.0769 19.7083H16C16.6797 19.7083 17.2308 19.1328 17.2308 18.4229C17.2308 17.7131 16.6797 17.1376 16 17.1376H11.0769ZM19.6923 11.5679C19.6923 10.858 20.2433 10.2826 20.9231 10.2826H21.7436C22.4233 10.2826 22.9744 10.858 22.9744 11.5679C22.9744 12.2777 22.4233 12.8532 21.7436 12.8532H20.9231C20.2433 12.8532 19.6923 12.2777 19.6923 11.5679ZM20.9231 17.1376C20.2433 17.1376 19.6923 17.7131 19.6923 18.4229C19.6923 19.1328 20.2433 19.7083 20.9231 19.7083H21.7436C22.4233 19.7083 22.9744 19.1328 22.9744 18.4229C22.9744 17.7131 22.4233 17.1376 21.7436 17.1376H20.9231Z" fill="#2B3F6C"/>
<path fill-rule="evenodd" clip-rule="evenodd" d="M1.23077 0C0.551034 0 0 0.575458 0 1.28532C0 1.99518 0.551034 2.57064 1.23077 2.57064H3.28205H28.7179H30.7692C31.449 2.57064 32 1.99518 32 1.28532C32 0.575458 31.449 0 30.7692 0H1.23077Z" fill="#2B3F6C"/>
</svg>
