<svg width="44" height="44" viewBox="0 0 44 44" fill="none" xmlns="http://www.w3.org/2000/svg">
<path opacity="0.4" d="M9.38574 16.2562C11.0086 13.9563 13.2359 11.9868 15.8214 10.5655C18.4068 9.14414 21.2497 8.3263 24.0357 8.20239C26.8217 8.07848 29.4423 8.65333 31.6077 9.86338C33.7732 11.0734 35.3992 12.8715 36.3059 15.0589" stroke="#2B3F6C" stroke-width="1.5" stroke-linecap="round"/>
<path d="M6.32013 12.3512L7.25587 18.2032C7.3417 18.7399 7.97094 19.0521 8.59819 18.8693L15.4371 16.8752" stroke="#2B3F6C" stroke-width="1.5" stroke-linecap="round"/>
<path opacity="0.4" d="M34.3274 27.4563C32.7045 29.7562 30.4772 31.7257 27.8918 33.147C25.3063 34.5684 22.4635 35.3862 19.6775 35.5101C16.8915 35.634 14.2709 35.0592 12.1054 33.8491C9.93992 32.6391 8.31394 30.841 7.40721 28.6536" stroke="#2B3F6C" stroke-width="1.5" stroke-linecap="round"/>
<path d="M37.393 31.3615L36.4573 25.5095C36.3714 24.9727 35.7422 24.6605 35.1149 24.8434L28.276 26.8375" stroke="#2B3F6C" stroke-width="1.5" stroke-linecap="round"/>
</svg>
