<svg width="32" height="32" viewBox="0 0 32 32" fill="none" xmlns="http://www.w3.org/2000/svg">
<rect width="32" height="32" rx="16" transform="matrix(1 -8.74228e-08 -8.74228e-08 -1 0 32)" fill="#2B3F6C" fill-opacity="0.3"/>
<path d="M23.5094 16.7379L17.216 19.8755C17.0595 19.9549 16.8818 19.9975 16.6969 19.9993C16.512 20.0011 16.3342 19.962 16.1778 19.8867C16.0071 19.8032 15.8649 19.6841 15.7654 19.5402C15.6658 19.3962 15.616 19.2333 15.616 19.068V16.8729L9.59288 19.8767C9.43644 19.9555 9.25868 19.9981 9.0809 19.9999C8.89601 20.0023 8.71825 19.9632 8.5618 19.8873C8.38403 19.8044 8.24175 19.6847 8.14931 19.5408C8.04975 19.3974 8 19.2344 8 19.0692V12.9314C8 12.7661 8.04975 12.6032 8.14931 12.4598C8.24175 12.3158 8.38403 12.1961 8.5618 12.1132C8.71825 12.0374 8.89601 11.9983 9.0809 12.0001C9.25868 12.0024 9.43644 12.0451 9.59288 12.1239L15.616 15.1288V12.9326C15.616 12.7673 15.6658 12.6038 15.7654 12.4598C15.8649 12.3158 16.0071 12.1961 16.1778 12.1132C16.3342 12.0374 16.512 11.9983 16.6969 12.0001C16.8818 12.0024 17.0595 12.0451 17.216 12.1239L23.5094 15.2621C23.6587 15.3397 23.7796 15.4487 23.8649 15.5773C23.9574 15.7058 24 15.8504 24 15.9979C24 16.1448 23.9574 16.2894 23.8649 16.4185C23.7796 16.5471 23.6587 16.6555 23.5094 16.7337V16.7379Z" fill="#2B3F6C"/>
</svg>
