<svg width="32" height="32" viewBox="0 0 32 32" fill="none" xmlns="http://www.w3.org/2000/svg">
<path opacity="0.3" d="M16 0C14.5749 0 13.1896 0.169169 11.8658 0.488126C10.7854 0.748447 10.2275 1.63691 10.048 2.37546C9.83545 3.2503 9.25887 4.03839 8.3798 4.52165C7.57154 4.96597 6.65773 5.07035 5.81494 4.88112C5.04035 4.7072 3.95885 4.79003 3.23507 5.5943C1.88942 7.08962 0.827914 8.82506 0.131423 10.7247C-0.284391 11.8588 0.35986 12.8801 1.04009 13.4137C1.82527 14.0297 2.32265 14.9591 2.32265 16C2.32265 17.0409 1.82527 17.9703 1.04009 18.5863C0.35986 19.1199 -0.284392 20.1412 0.131421 21.2753C0.827833 23.1747 1.88918 24.91 3.23462 26.4052C3.95844 27.2096 5.04008 27.2924 5.81472 27.1184C6.65757 26.9291 7.57147 27.0335 8.37979 27.4778C9.25897 27.9611 9.83557 28.7494 10.0481 29.6243C10.2275 30.363 10.7854 31.2516 11.866 31.5119C13.1897 31.8308 14.5749 32 16 32C17.4251 32 18.8104 31.8308 20.1342 31.5119C21.2147 31.2515 21.7726 30.3629 21.952 29.6243C22.1646 28.7494 22.7412 27.9611 23.6203 27.4778C24.4286 27.0335 25.3425 26.9291 26.1853 27.1184C26.96 27.2923 28.0416 27.2095 28.7654 26.4052C30.1108 24.91 31.1722 23.1747 31.8686 21.2753C32.2844 20.1411 31.6401 19.1199 30.9599 18.5863C30.1747 17.9703 29.6774 17.0409 29.6774 16C29.6774 14.9591 30.1747 14.0297 30.9599 13.4137C31.6401 12.8801 32.2844 11.8589 31.8686 10.7247C31.1721 8.8251 30.1106 7.08966 28.765 5.59435C28.0412 4.7901 26.9597 4.70725 26.1852 4.88114C25.3424 5.07034 24.4286 4.96596 23.6204 4.52165C22.7414 4.03839 22.1648 3.25032 21.9522 2.37549C21.7727 1.63696 21.2148 0.748525 20.1344 0.488193C18.8106 0.169193 17.4252 0 16 0Z" fill="#2B3F6C"/>
<ellipse cx="4.68939" cy="4.46512" rx="4.68939" ry="4.46512" transform="matrix(-1 0 0 1 20.6893 11.5349)" fill="#2B3F6C"/>
</svg>
