<svg width="38" height="32" viewBox="0 0 38 32" fill="none" xmlns="http://www.w3.org/2000/svg">
<path fill-rule="evenodd" clip-rule="evenodd" d="M33.2665 29.0843C33.3622 29.0986 33.4579 29.1133 33.5535 29.1284L34.0342 29.2045C36.1274 29.5358 38 27.7363 38 25.3936V23.6057C38 21.9303 37.0494 20.4357 35.6253 19.8722C33.98 19.2212 32.2815 18.7972 30.5668 18.6005C32.3559 20.0596 33.4656 22.4223 33.4656 24.9999V27.2197C33.4656 27.8643 33.3964 28.4886 33.2665 29.0843ZM26.0145 16.222C26.7275 16.5541 27.5108 16.7376 28.3327 16.7376C31.6395 16.7376 34.3201 13.7674 34.3201 10.1036C34.3201 6.43975 31.6395 3.46962 28.3327 3.46962C28.2347 3.46962 28.1373 3.47222 28.0405 3.47738C28.6418 4.92195 28.9779 6.5349 28.9779 8.23639C28.9779 11.362 27.8438 14.1889 26.0145 16.222Z" fill="#2B3F6C"/>
<path fill-rule="evenodd" clip-rule="evenodd" d="M4.73357 29.0843C4.63785 29.0986 4.54217 29.1133 4.44653 29.1284L3.96579 29.2045C1.87268 29.5358 2.86102e-06 27.7363 2.86102e-06 25.3936V23.6057C2.86102e-06 21.9303 0.950608 20.4357 2.37468 19.8722C4.02 19.2212 5.71858 18.7972 7.43326 18.6005C5.64412 20.0596 4.53442 22.4223 4.53442 24.9999V27.2197C4.53442 27.8643 4.60358 28.4886 4.73357 29.0843ZM11.9855 16.222C11.2725 16.5541 10.4893 16.7376 9.66735 16.7376C6.36057 16.7376 3.67989 13.7674 3.67989 10.1036C3.67989 6.43975 6.36057 3.46962 9.66735 3.46962C9.76532 3.46962 9.86274 3.47222 9.95956 3.47738C9.35823 4.92195 9.02217 6.5349 9.02217 8.23639C9.02217 11.362 10.1562 14.1889 11.9855 16.222Z" fill="#2B3F6C"/>
<path opacity="0.3" fill-rule="evenodd" clip-rule="evenodd" d="M10.1457 20.3646C15.8969 18.0477 22.1818 18.0477 27.933 20.3646C29.6697 21.0642 30.829 22.9198 30.829 24.9999V27.2197C30.829 30.1282 28.5452 32.3624 25.9926 31.9511L25.4063 31.8566C21.1831 31.1761 16.8956 31.1761 12.6724 31.8566L12.0861 31.9511C9.53349 32.3624 7.24969 30.1282 7.24969 27.2197V24.9999C7.24969 22.9198 8.40899 21.0642 10.1457 20.3646Z" fill="#2B3F6C"/>
<path opacity="0.3" fill-rule="evenodd" clip-rule="evenodd" d="M26.3413 8.23639C26.3413 3.68756 23.0721 0 19.0394 0C15.0066 0 11.7374 3.68756 11.7374 8.23639C11.7374 12.7852 15.0066 16.4728 19.0394 16.4728C23.0721 16.4728 26.3413 12.7852 26.3413 8.23639Z" fill="#2B3F6C"/>
</svg>
